<?xml version="1.0" encoding="iso-8859-1"?>
<!-- Generator: Adobe Illustrator 19.0.0, SVG Export Plug-In . SVG Version: 6.00 Build 0)  -->
<svg version="1.1" id="Capa_1" xmlns="http://www.w3.org/2000/svg" xmlns:xlink="http://www.w3.org/1999/xlink" x="0px" y="0px"
	 viewBox="0 0 353.176 353.176" style="enable-background:new 0 0 353.176 353.176;" xml:space="preserve">
<g>
	<g>
		<g>
			<polygon fill="#FFF" points="0.261,321.306 31.608,353.176 195.135,189.649 163.265,158.302 			"/>
			<polygon fill="#FFF" points="174.759,146.808 206.106,178.155 246.857,137.927 214.988,106.58 			"/>
			<path fill="#FFF" d="M278.727,82.547c2.12,0.11,4.193-0.644,5.747-2.09l37.094-37.094c2.597-3.462,1.895-8.375-1.567-10.971
				c-2.786-2.09-6.618-2.09-9.404,0l-37.094,37.094c-2.987,3.047-2.987,7.924,0,10.971
				C274.895,81.823,276.776,82.575,278.727,82.547z"/>
			<path fill="#FFF" d="M345.078,112.327h-52.245c-4.328,0-7.837,3.509-7.837,7.837c0,4.328,3.509,7.837,7.837,7.837h52.245
				c4.328,0,7.837-3.509,7.837-7.837C352.914,115.835,349.406,112.327,345.078,112.327z"/>
			<path fill="#FFF" d="M321.567,187.559l-37.094-37.094c-3.22-2.529-7.751-2.529-10.971,0c-3.052,3.224-3.052,8.27,0,11.494l37.094,36.571
				c1.303,1.559,3.196,2.505,5.224,2.612c2.183-0.086,4.246-1.024,5.747-2.612c3.03-2.672,3.32-7.294,0.648-10.324
				C322.013,187.978,321.797,187.761,321.567,187.559z"/>
			<path fill="#FFF" d="M192,80.457c3.315,2.813,8.179,2.813,11.494,0c2.529-3.22,2.529-7.751,0-10.971L166.4,32.392
				c-3.463-2.597-8.375-1.895-10.971,1.567c-2.09,2.786-2.09,6.618,0,9.404L192,80.457z"/>
			<path fill="#FFF" d="M232.751,67.918c4.328,0,7.837-3.509,7.837-7.837V7.837c0-4.328-3.509-7.837-7.837-7.837
				c-4.328,0-7.837,3.509-7.837,7.837v52.245C224.914,64.41,228.423,67.918,232.751,67.918z"/>
		</g>
	</g>
</g>
<g>
</g>
<g>
</g>
<g>
</g>
<g>
</g>
<g>
</g>
<g>
</g>
<g>
</g>
<g>
</g>
<g>
</g>
<g>
</g>
<g>
</g>
<g>
</g>
<g>
</g>
<g>
</g>
<g>
</g>
</svg>
